<svg width="36" height="35" viewBox="0 0 36 35" fill="none" xmlns="http://www.w3.org/2000/svg">
<path d="M18 0C8.064 0 0 7.84 0 17.5C0 27.16 8.064 35 18 35C27.936 35 36 27.16 36 17.5C36 7.84 27.936 0 18 0ZM9.126 28.49C9.9 26.915 14.616 25.375 18 25.375C21.384 25.375 26.118 26.915 26.874 28.49C24.426 30.38 21.348 31.5 18 31.5C14.652 31.5 11.574 30.38 9.126 28.49ZM29.448 25.9525C26.874 22.9075 20.628 21.875 18 21.875C15.372 21.875 9.126 22.9075 6.552 25.9525C4.716 23.6075 3.6 20.685 3.6 17.5C3.6 9.7825 10.062 3.5 18 3.5C25.938 3.5 32.4 9.7825 32.4 17.5C32.4 20.685 31.284 23.6075 29.448 25.9525ZM18 7C14.508 7 11.7 9.73 11.7 13.125C11.7 16.52 14.508 19.25 18 19.25C21.492 19.25 24.3 16.52 24.3 13.125C24.3 9.73 21.492 7 18 7ZM18 15.75C16.506 15.75 15.3 14.5775 15.3 13.125C15.3 11.6725 16.506 10.5 18 10.5C19.494 10.5 20.7 11.6725 20.7 13.125C20.7 14.5775 19.494 15.75 18 15.75Z" fill="white"/>
</svg>
