<svg width="61" height="61" viewBox="0 0 61 61" fill="none" xmlns="http://www.w3.org/2000/svg">
<path d="M43.6042 38.4167H40.8721L39.9038 37.4829C43.2929 33.5404 45.3333 28.4221 45.3333 22.8542C45.3333 10.4388 35.2696 0.375 22.8542 0.375C10.4388 0.375 0.375 10.4388 0.375 22.8542C0.375 35.2696 10.4388 45.3333 22.8542 45.3333C28.4221 45.3333 33.5404 43.2929 37.4829 39.9038L38.4167 40.8721V43.6042L55.7083 60.8613L60.8613 55.7083L43.6042 38.4167ZM22.8542 38.4167C14.2429 38.4167 7.29167 31.4654 7.29167 22.8542C7.29167 14.2429 14.2429 7.29167 22.8542 7.29167C31.4654 7.29167 38.4167 14.2429 38.4167 22.8542C38.4167 31.4654 31.4654 38.4167 22.8542 38.4167Z" fill="white"/>
</svg>
